<svg xmlns="http://www.w3.org/2000/svg" viewBox="0 0 64 64" width="64" height="64">
  <circle cx="32" cy="32" r="30" fill="#c41e3a"/>
  <path d="M32 12c-2 0-4 1-5 3l-1 4v6h-4c-1 0-2 1-2 2v4c0 1 1 2 2 2h4v14c0 3 2 5 5 5s5-2 5-5V33h4c1 0 2-1 2-2v-4c0-1-1-2-2-2h-4v-6l-1-4c-1-2-3-3-5-3z" fill="#ffffff" transform="translate(0,2)"/>
  <rect x="24" y="16" width="16" height="6" rx="2" fill="#ffffff"/>
  <rect x="28" y="20" width="8" height="28" rx="2" fill="#ffffff"/>
  <rect x="22" y="28" width="20" height="6" rx="2" fill="#ffffff"/>
</svg>
